<svg width="251" height="100" viewBox="0 0 251 100" fill="none" xmlns="http://www.w3.org/2000/svg">
<path d="M217.606 59.7292H217.465C216.053 61.5637 214.313 62.8808 212.243 63.6804C210.174 64.4801 208.057 64.8799 205.893 64.8799C204.294 64.8799 202.789 64.6447 201.377 64.1743C199.966 63.751 198.743 63.0924 197.708 62.1987C196.721 61.305 195.992 60.1996 195.521 58.8825C195.051 57.5655 194.933 56.0367 195.168 54.2963C195.592 51.3329 196.697 49.0515 198.485 47.4522C200.319 45.8059 202.459 44.6064 204.905 43.8538C207.398 43.0542 209.985 42.5838 212.667 42.4427C215.395 42.3016 217.864 42.231 220.075 42.231C220.31 40.3495 219.84 38.8678 218.664 37.7859C217.488 36.657 215.983 36.0925 214.148 36.0925C212.408 36.0925 210.762 36.4688 209.209 37.2214C207.704 37.927 206.293 38.9148 204.976 40.1849L200.178 34.3992C202.389 32.5647 204.858 31.2006 207.587 30.3068C210.362 29.3661 213.161 28.8957 215.983 28.8957C219.087 28.8957 221.58 29.2955 223.462 30.0952C225.39 30.8478 226.849 31.9767 227.836 33.4819C228.824 34.9871 229.389 36.8451 229.53 39.0559C229.718 41.2197 229.6 43.7362 229.177 46.6056L226.778 64.0332H217.041L217.606 59.7292ZM216.477 49.0045C215.677 49.0045 214.666 49.0515 213.443 49.1456C212.267 49.1927 211.091 49.3808 209.915 49.7101C208.786 50.0393 207.775 50.5332 206.881 51.1918C206.034 51.8503 205.54 52.7676 205.399 53.9435C205.305 54.602 205.376 55.1665 205.611 55.6369C205.846 56.0602 206.175 56.4365 206.599 56.7658C207.022 57.0951 207.516 57.3303 208.08 57.4714C208.692 57.6125 209.28 57.683 209.844 57.683C210.879 57.683 211.891 57.5419 212.878 57.2597C213.913 56.9775 214.83 56.5776 215.63 56.0602C216.477 55.5428 217.182 54.8843 217.747 54.0846C218.311 53.285 218.664 52.3442 218.805 51.2623L219.087 49.0045H216.477Z" fill="white"/>
<path d="M173.703 29.7424H184.287L183.51 35.2458H183.652C185.063 33.1291 186.615 31.5533 188.308 30.5185C190.002 29.4366 192.024 28.8957 194.376 28.8957C194.988 28.8957 195.599 28.9192 196.211 28.9663C196.822 29.0133 197.387 29.1074 197.904 29.2485L196.564 38.9148C195.811 38.6796 195.082 38.515 194.376 38.4209C193.671 38.2798 192.918 38.2092 192.118 38.2092C190.096 38.2092 188.45 38.4915 187.179 39.0559C185.909 39.6204 184.898 40.42 184.146 41.4549C183.393 42.4427 182.805 43.6422 182.382 45.0533C182.005 46.4644 181.7 48.0167 181.464 49.7101L179.489 64.0332H168.905L173.703 29.7424Z" fill="white"/>
<path d="M163.739 58.1064C161.763 60.2701 159.388 61.94 156.613 63.116C153.885 64.2919 151.133 64.8799 148.358 64.8799C145.723 64.8799 143.301 64.4565 141.09 63.6099C138.879 62.7632 137.021 61.5637 135.516 60.0114C134.058 58.4121 132.976 56.5071 132.271 54.2963C131.612 52.0855 131.471 49.616 131.847 46.8878C132.223 44.1596 133.047 41.6901 134.317 39.4793C135.634 37.2685 137.257 35.387 139.185 33.8347C141.114 32.2354 143.301 31.0124 145.747 30.1657C148.193 29.319 150.733 28.8957 153.367 28.8957C155.813 28.8957 157.977 29.319 159.858 30.1657C161.74 31.0124 163.269 32.2354 164.445 33.8347C165.621 35.387 166.42 37.2685 166.844 39.4793C167.314 41.6901 167.361 44.1596 166.985 46.8878L166.491 50.204H141.937C142.078 52.2266 142.76 53.8494 143.983 55.0724C145.253 56.2484 146.923 56.8364 148.993 56.8364C150.733 56.8364 152.238 56.4601 153.508 55.7074C154.825 54.9078 156.025 53.8965 157.107 52.6735L163.739 58.1064ZM156.895 43.0071C157.177 41.2197 156.801 39.691 155.766 38.4209C154.731 37.1509 153.25 36.5159 151.321 36.5159C150.145 36.5159 149.087 36.704 148.146 37.0803C147.205 37.4566 146.382 37.9505 145.676 38.562C144.971 39.1265 144.383 39.8085 143.912 40.6082C143.442 41.3608 143.113 42.1605 142.925 43.0071H156.895Z" fill="white"/>
<path d="M124.165 64.0332H114.428L114.992 59.5175H114.851C114.381 60.129 113.746 60.764 112.946 61.4226C112.194 62.0341 111.323 62.5985 110.335 63.1159C109.348 63.6334 108.266 64.0567 107.09 64.386C105.961 64.7152 104.809 64.8799 103.633 64.8799C101.092 64.8799 98.8347 64.4565 96.8591 63.6098C94.9305 62.7161 93.3312 61.4931 92.0612 59.9409C90.7911 58.3416 89.8974 56.46 89.38 54.2963C88.9096 52.1325 88.8626 49.7571 89.2389 47.17C89.5682 44.7711 90.2502 42.4897 91.285 40.326C92.3199 38.1152 93.6134 36.1631 95.1657 34.4697C96.765 32.7763 98.5995 31.4357 100.669 30.4479C102.739 29.4131 104.997 28.8957 107.443 28.8957C109.653 28.8957 111.676 29.2485 113.511 29.954C115.345 30.6126 116.733 31.765 117.673 33.4113H117.815L121.06 10.6919H131.644L124.165 64.0332ZM116.827 46.8878C117.203 44.3007 116.756 42.2075 115.486 40.6082C114.216 39.0089 112.241 38.2092 109.559 38.2092C106.878 38.2092 104.691 39.0089 102.998 40.6082C101.304 42.2075 100.269 44.3007 99.893 46.8878C99.5167 49.4749 99.9401 51.5681 101.163 53.1674C102.433 54.7667 104.409 55.5663 107.09 55.5663C109.771 55.5663 111.958 54.7667 113.652 53.1674C115.392 51.5681 116.45 49.4749 116.827 46.8878Z" fill="white"/>
<path d="M79.5891 10.6919H90.1727L82.6936 64.0332H72.11L79.5891 10.6919Z" fill="white"/>
<path d="M58.2731 59.7292H58.132C56.7208 61.5637 54.9804 62.8808 52.9107 63.6804C50.841 64.4801 48.7243 64.8799 46.5606 64.8799C44.9613 64.8799 43.4561 64.6447 42.0449 64.1743C40.6338 63.751 39.4108 63.0924 38.3759 62.1987C37.3881 61.305 36.659 60.1996 36.1887 58.8825C35.7183 57.5655 35.6007 56.0367 35.8359 54.2963C36.2592 51.3329 37.3646 49.0515 39.1521 47.4522C40.9865 45.8059 43.1268 44.6064 45.5728 43.8538C48.0658 43.0542 50.6529 42.5838 53.3341 42.4427C56.0623 42.3016 58.5318 42.231 60.7426 42.231C60.9778 40.3495 60.5074 38.8678 59.3314 37.7859C58.1555 36.657 56.6502 36.0925 54.8158 36.0925C53.0753 36.0925 51.429 36.4688 49.8768 37.2214C48.3715 37.927 46.9604 38.9148 45.6433 40.1849L40.8454 34.3992C43.0562 32.5647 45.5257 31.2006 48.2539 30.3068C51.0292 29.3661 53.828 28.8957 56.6503 28.8957C59.7548 28.8957 62.2478 29.2955 64.1293 30.0952C66.0579 30.8478 67.5161 31.9767 68.5039 33.4819C69.4917 34.9871 70.0561 36.8451 70.1972 39.0559C70.3854 41.2197 70.2678 43.7362 69.8445 46.6056L67.4455 64.0332H57.7086L58.2731 59.7292ZM57.1442 49.0045C56.3445 49.0045 55.3332 49.0515 54.1102 49.1456C52.9342 49.1927 51.7583 49.3808 50.5823 49.7101C49.4534 50.0393 48.4421 50.5332 47.5484 51.1918C46.7017 51.8503 46.2078 52.7676 46.0667 53.9435C45.9726 54.602 46.0431 55.1665 46.2783 55.6369C46.5135 56.0602 46.8428 56.4365 47.2661 56.7658C47.6895 57.0951 48.1834 57.3303 48.7478 57.4714C49.3593 57.6125 49.9473 57.683 50.5118 57.683C51.5466 57.683 52.5579 57.5419 53.5457 57.2597C54.5806 56.9775 55.4978 56.5776 56.2975 56.0602C57.1442 55.5428 57.8497 54.8843 58.4142 54.0846C58.9786 53.285 59.3314 52.3442 59.4725 51.2623L59.7548 49.0045H57.1442Z" fill="white"/>
<path d="M30.726 40.8199C30.3026 40.0673 29.6441 39.4558 28.7504 38.9854C27.9037 38.468 26.9394 38.2092 25.8575 38.2092C23.1764 38.2092 20.9891 39.0089 19.2957 40.6082C17.6023 42.2075 16.5675 44.3007 16.1912 46.8878C15.8149 49.4749 16.2382 51.5681 17.4612 53.1674C18.7312 54.7667 20.7069 55.5663 23.388 55.5663C24.564 55.5663 25.6223 55.3076 26.5631 54.7902C27.5039 54.2728 28.327 53.6613 29.0326 52.9557L34.9594 60.2937C33.0308 61.987 30.9141 63.1865 28.6093 63.8921C26.3044 64.5506 24.1406 64.8799 22.118 64.8799C19.4839 64.8799 17.0614 64.4565 14.8506 63.6099C12.6398 62.7632 10.7818 61.5637 9.27658 60.0114C7.81839 58.4121 6.73652 56.5071 6.03094 54.2963C5.37241 52.0855 5.2313 49.616 5.6076 46.8878C5.98391 44.1596 6.80707 41.6901 8.0771 39.4793C9.39417 37.2685 11.017 35.387 12.9456 33.8347C14.8741 32.2354 17.0614 31.0124 19.5074 30.1657C21.9534 29.319 24.4934 28.8957 27.1276 28.8957C29.1502 28.8957 31.2199 29.2485 33.3366 29.9541C35.5004 30.6126 37.2878 31.7885 38.6989 33.4819L30.726 40.8199Z" fill="white"/>
<path d="M216.662 4.20339C219.248 4.59049 222.437 5.51526 226.502 6.69401L229.42 7.54001C233.485 8.71871 236.674 9.64345 239.067 10.6999C241.516 11.7818 243.326 13.0826 244.45 15.1258C245.575 17.169 245.706 19.3935 245.31 22.0422C244.923 24.6284 243.998 27.8177 242.819 31.8828L230.577 74.1048C229.398 78.1699 228.473 81.3591 227.417 83.7513C226.335 86.2011 225.034 88.0105 222.991 89.1352C220.948 90.2598 218.723 90.3909 216.074 89.9945C213.488 89.6074 210.299 88.6826 206.234 87.5038L203.316 86.6579C199.251 85.4792 196.062 84.5544 193.67 83.498C191.22 82.4161 189.41 81.1153 188.286 79.0721C187.161 77.0289 187.03 74.8043 187.426 72.1557C187.691 70.3877 188.207 68.3379 188.883 65.9192L191.753 66.142C191.011 68.7657 190.477 70.8378 190.218 72.5735C189.868 74.9098 190.051 76.4259 190.758 77.7111C191.466 78.9964 192.649 79.9619 194.81 80.9163C197.008 81.8872 200.014 82.762 204.206 83.9772L206.916 84.7632C211.107 85.9785 214.115 86.8475 216.492 87.2033C218.829 87.553 220.345 87.3701 221.63 86.6627C222.915 85.9552 223.881 84.7721 224.835 82.6111C225.806 80.4126 226.681 77.4064 227.896 73.2152L240.079 31.2003C241.294 27.0091 242.163 24.0012 242.519 21.6244C242.868 19.288 242.685 17.772 241.978 16.4867C241.271 15.2015 240.087 14.236 237.926 13.2816C235.728 12.3107 232.722 11.4359 228.531 10.2206L225.82 9.43466C221.629 8.21939 218.621 7.35035 216.244 6.99458C213.908 6.64489 212.392 6.82774 211.106 7.53518C209.821 8.24263 208.856 9.42574 207.901 11.5868C206.93 13.7852 206.055 16.7915 204.84 20.9826L204.569 21.9182L201.695 21.695L202.16 20.0932C203.338 16.0281 204.263 12.8387 205.319 10.4466C206.401 7.99673 207.702 6.18736 209.745 5.0627C211.789 3.93805 214.013 3.80695 216.662 4.20339Z" fill="#55ACFD"/>
<path d="M216.662 4.20339C219.248 4.59049 222.437 5.51526 226.502 6.69401L229.42 7.54001C233.485 8.71871 236.674 9.64345 239.067 10.6999C241.516 11.7818 243.326 13.0826 244.45 15.1258C245.575 17.169 245.706 19.3935 245.31 22.0422C244.923 24.6284 243.998 27.8177 242.819 31.8828L230.577 74.1048C229.398 78.1699 228.473 81.3591 227.417 83.7513C226.335 86.2011 225.034 88.0105 222.991 89.1352C220.948 90.2598 218.723 90.3909 216.074 89.9945C213.488 89.6074 210.299 88.6826 206.234 87.5038L203.316 86.6579C199.251 85.4792 196.062 84.5544 193.67 83.498C191.22 82.4161 189.41 81.1153 188.286 79.0721C187.161 77.0289 187.03 74.8043 187.426 72.1557C187.691 70.3877 188.207 68.3379 188.883 65.9192L191.753 66.142C191.011 68.7657 190.477 70.8378 190.218 72.5735C189.868 74.9098 190.051 76.4259 190.758 77.7111C191.466 78.9964 192.649 79.9619 194.81 80.9163C197.008 81.8872 200.014 82.762 204.206 83.9772L206.916 84.7632C211.107 85.9785 214.115 86.8475 216.492 87.2033C218.829 87.553 220.345 87.3701 221.63 86.6627C222.915 85.9552 223.881 84.7721 224.835 82.6111C225.806 80.4126 226.681 77.4064 227.896 73.2152L240.079 31.2003C241.294 27.0091 242.163 24.0012 242.519 21.6244C242.868 19.288 242.685 17.772 241.978 16.4867C241.271 15.2015 240.087 14.236 237.926 13.2816C235.728 12.3107 232.722 11.4359 228.531 10.2206L225.82 9.43466C221.629 8.21939 218.621 7.35035 216.244 6.99458C213.908 6.64489 212.392 6.82774 211.106 7.53518C209.821 8.24263 208.856 9.42574 207.901 11.5868C206.93 13.7852 206.055 16.7915 204.84 20.9826L204.569 21.9182L201.695 21.695L202.16 20.0932C203.338 16.0281 204.263 12.8387 205.319 10.4466C206.401 7.99673 207.702 6.18736 209.745 5.0627C211.789 3.93805 214.013 3.80695 216.662 4.20339Z" fill="white"/>
<path d="M211.699 77.3345C211.048 79.5801 208.764 80.8912 206.597 80.2629C204.43 79.6346 203.202 77.3049 203.853 75.0593C204.504 72.8138 206.788 71.5027 208.955 72.131C211.122 72.7592 212.351 75.089 211.699 77.3345Z" fill="#55ACFD"/>
<path d="M211.699 77.3345C211.048 79.5801 208.764 80.8912 206.597 80.2629C204.43 79.6346 203.202 77.3049 203.853 75.0593C204.504 72.8138 206.788 71.5027 208.955 72.131C211.122 72.7592 212.351 75.089 211.699 77.3345Z" fill="white"/>
<path d="M84.3415 91.2539C84.7742 91.7995 85.2446 92.2323 85.7526 92.5521C86.2794 92.872 86.938 93.0319 87.7282 93.0319C88.0669 93.0319 88.4055 92.9943 88.7442 92.919C89.1017 92.8438 89.4216 92.7215 89.7038 92.5521C89.986 92.3828 90.2118 92.1758 90.3811 91.9312C90.5505 91.6678 90.6352 91.3574 90.6352 90.9999C90.6352 90.6424 90.5505 90.3507 90.3811 90.125C90.2306 89.8992 90.0237 89.711 89.7603 89.5605C89.4968 89.3912 89.1958 89.2595 88.8571 89.1654C88.5184 89.0713 88.1704 88.9866 87.8129 88.9114C87.192 88.7797 86.5993 88.6292 86.0348 88.4598C85.4704 88.2905 84.9718 88.0741 84.539 87.8107C84.1251 87.5285 83.7864 87.171 83.523 86.7382C83.2784 86.3055 83.1561 85.7504 83.1561 85.0731C83.1561 84.4333 83.2972 83.8689 83.5794 83.3797C83.8617 82.8905 84.238 82.486 84.7084 82.1661C85.1787 81.8463 85.7056 81.6017 86.2888 81.4323C86.8721 81.263 87.4742 81.1783 88.0951 81.1783C89.0359 81.1783 89.9014 81.3665 90.6916 81.7428C91.5007 82.1191 92.131 82.7306 92.5825 83.5773L90.748 84.7908C90.4658 84.3205 90.0895 83.9442 89.6191 83.6619C89.1676 83.3609 88.6125 83.2104 87.954 83.2104C87.6529 83.2104 87.3425 83.248 87.0226 83.3232C86.7216 83.3985 86.4488 83.5114 86.2042 83.6619C85.9596 83.8124 85.7526 84.01 85.5833 84.2546C85.4327 84.4804 85.3575 84.7438 85.3575 85.0448C85.3575 85.3271 85.4421 85.5717 85.6115 85.7786C85.7996 85.9668 86.0442 86.1361 86.3453 86.2867C86.6651 86.4372 87.0226 86.5689 87.4177 86.6818C87.8317 86.7947 88.255 86.8887 88.6878 86.964C89.271 87.0769 89.8261 87.2274 90.3529 87.4156C90.8798 87.5849 91.3407 87.8201 91.7358 88.1211C92.131 88.4222 92.4414 88.7985 92.6672 89.2501C92.893 89.7016 93.0059 90.2567 93.0059 90.9152C93.0059 91.6678 92.8554 92.3075 92.5543 92.8344C92.2533 93.3612 91.8487 93.7939 91.3407 94.1326C90.8515 94.4525 90.2871 94.6877 89.6474 94.8382C89.0265 94.9887 88.3867 95.064 87.7282 95.064C86.5993 95.064 85.6209 94.8946 84.793 94.556C83.984 94.1985 83.2502 93.5493 82.5916 92.6086L84.3415 91.2539Z" fill="white"/>
<path d="M102.454 83.3797H98.5596V89.9839C98.5596 90.4166 98.569 90.8211 98.5878 91.1974C98.6067 91.5549 98.6819 91.8748 98.8136 92.157C98.9453 92.4204 99.1429 92.6368 99.4063 92.8061C99.6697 92.9567 100.046 93.0319 100.535 93.0319C100.855 93.0319 101.184 92.9943 101.523 92.919C101.862 92.8438 102.182 92.7309 102.483 92.5804L102.567 94.5842C102.191 94.7535 101.768 94.8758 101.297 94.9511C100.846 95.0263 100.413 95.064 99.999 95.064C99.2087 95.064 98.5784 94.9605 98.1081 94.7535C97.6377 94.5466 97.2708 94.2549 97.0074 93.8786C96.7439 93.5023 96.5652 93.0413 96.4711 92.4957C96.3959 91.9312 96.3582 91.3103 96.3582 90.633V83.3797H93.4795V81.517H96.3582V77.7633H98.5596V81.517H102.454V83.3797Z" fill="white"/>
<path d="M103.543 88.1211C103.543 87.0863 103.721 86.1455 104.079 85.2989C104.436 84.4522 104.926 83.7278 105.547 83.1257C106.167 82.5048 106.911 82.025 107.776 81.6863C108.642 81.3476 109.582 81.1783 110.598 81.1783C111.614 81.1783 112.555 81.3476 113.421 81.6863C114.286 82.025 115.029 82.5048 115.65 83.1257C116.271 83.7278 116.76 84.4522 117.118 85.2989C117.475 86.1455 117.654 87.0863 117.654 88.1211C117.654 89.156 117.475 90.0967 117.118 90.9434C116.76 91.7901 116.271 92.5239 115.65 93.1448C115.029 93.7469 114.286 94.2173 113.421 94.556C112.555 94.8946 111.614 95.064 110.598 95.064C109.582 95.064 108.642 94.8946 107.776 94.556C106.911 94.2173 106.167 93.7469 105.547 93.1448C104.926 92.5239 104.436 91.7901 104.079 90.9434C103.721 90.0967 103.543 89.156 103.543 88.1211ZM105.913 88.1211C105.913 88.8173 106.017 89.4664 106.224 90.0685C106.45 90.6518 106.77 91.1692 107.183 91.6208C107.597 92.0535 108.087 92.4016 108.651 92.665C109.234 92.9096 109.883 93.0319 110.598 93.0319C111.313 93.0319 111.953 92.9096 112.518 92.665C113.101 92.4016 113.599 92.0535 114.013 91.6208C114.427 91.1692 114.738 90.6518 114.945 90.0685C115.171 89.4664 115.283 88.8173 115.283 88.1211C115.283 87.425 115.171 86.7853 114.945 86.202C114.738 85.5999 114.427 85.0825 114.013 84.6497C113.599 84.1982 113.101 83.8501 112.518 83.6055C111.953 83.3421 111.313 83.2104 110.598 83.2104C109.883 83.2104 109.234 83.3421 108.651 83.6055C108.087 83.8501 107.597 84.1982 107.183 84.6497C106.77 85.0825 106.45 85.5999 106.224 86.202C106.017 86.7853 105.913 87.425 105.913 88.1211Z" fill="white"/>
<path d="M120.215 84.6497C120.215 84.0476 120.197 83.4832 120.159 82.9564C120.121 82.4295 120.103 81.9497 120.103 81.517H122.191C122.191 81.8745 122.2 82.232 122.219 82.5895C122.238 82.9469 122.247 83.3138 122.247 83.6901H122.304C122.454 83.3703 122.661 83.0598 122.925 82.7588C123.207 82.4577 123.536 82.1943 123.913 81.9686C124.289 81.724 124.712 81.5358 125.183 81.4041C125.653 81.2536 126.161 81.1783 126.707 81.1783C126.857 81.1783 127.008 81.1877 127.158 81.2065C127.309 81.2253 127.459 81.263 127.61 81.3194L127.469 83.549C127.092 83.4361 126.697 83.3797 126.283 83.3797C124.929 83.3797 123.941 83.8219 123.32 84.7062C122.718 85.5717 122.417 86.7664 122.417 88.2905V94.7253H120.215V84.6497Z" fill="white"/>
<path d="M140.592 92.3264C139.802 93.3424 138.936 94.0574 137.995 94.4713C137.055 94.8664 135.963 95.064 134.722 95.064C133.687 95.064 132.755 94.8852 131.927 94.5277C131.1 94.1514 130.394 93.6528 129.811 93.0319C129.246 92.411 128.804 91.6772 128.484 90.8305C128.183 89.9838 128.033 89.0807 128.033 88.1211C128.033 87.1051 128.202 86.1738 128.541 85.3271C128.879 84.4616 129.35 83.7278 129.952 83.1257C130.554 82.5048 131.269 82.025 132.097 81.6863C132.925 81.3476 133.828 81.1783 134.806 81.1783C135.728 81.1783 136.575 81.3382 137.346 81.6581C138.118 81.9591 138.776 82.4107 139.322 83.0128C139.886 83.5961 140.319 84.3205 140.62 85.186C140.921 86.0326 141.072 87.0016 141.072 88.0929V88.7985H130.403C130.441 89.363 130.573 89.9086 130.799 90.4354C131.043 90.9434 131.354 91.395 131.73 91.7901C132.106 92.1664 132.548 92.4675 133.056 92.6933C133.564 92.919 134.119 93.0319 134.722 93.0319C135.681 93.0319 136.49 92.8626 137.149 92.5239C137.807 92.1852 138.4 91.6866 138.927 91.0281L140.592 92.3264ZM138.701 86.9358C138.663 85.8069 138.296 84.9037 137.6 84.2264C136.904 83.549 135.945 83.2104 134.722 83.2104C133.499 83.2104 132.511 83.549 131.758 84.2264C131.006 84.9037 130.554 85.8069 130.403 86.9358H138.701Z" fill="white"/>
<path d="M143.913 91.2539C144.345 91.7995 144.816 92.2323 145.324 92.5521C145.851 92.872 146.509 93.0319 147.299 93.0319C147.638 93.0319 147.977 92.9943 148.315 92.919C148.673 92.8438 148.993 92.7215 149.275 92.5521C149.557 92.3828 149.783 92.1758 149.952 91.9312C150.122 91.6678 150.206 91.3574 150.206 90.9999C150.206 90.6424 150.122 90.3507 149.952 90.125C149.802 89.8992 149.595 89.711 149.332 89.5605C149.068 89.3912 148.767 89.2595 148.428 89.1654C148.09 89.0713 147.742 88.9866 147.384 88.9114C146.763 88.7797 146.171 88.6292 145.606 88.4598C145.042 88.2905 144.543 88.0741 144.11 87.8107C143.696 87.5285 143.358 87.171 143.094 86.7382C142.85 86.3055 142.727 85.7504 142.727 85.0731C142.727 84.4333 142.868 83.8689 143.151 83.3797C143.433 82.8905 143.809 82.486 144.28 82.1661C144.75 81.8463 145.277 81.6017 145.86 81.4323C146.443 81.263 147.045 81.1783 147.666 81.1783C148.607 81.1783 149.473 81.3665 150.263 81.7428C151.072 82.1191 151.702 82.7306 152.154 83.5773L150.319 84.7908C150.037 84.3205 149.661 83.9442 149.19 83.6619C148.739 83.3609 148.184 83.2104 147.525 83.2104C147.224 83.2104 146.914 83.248 146.594 83.3232C146.293 83.3985 146.02 83.5114 145.775 83.6619C145.531 83.8124 145.324 84.01 145.155 84.2546C145.004 84.4804 144.929 84.7438 144.929 85.0448C144.929 85.3271 145.013 85.5717 145.183 85.7786C145.371 85.9668 145.615 86.1361 145.917 86.2867C146.236 86.4372 146.594 86.5689 146.989 86.6818C147.403 86.7947 147.826 86.8887 148.259 86.964C148.842 87.0769 149.397 87.2274 149.924 87.4156C150.451 87.5849 150.912 87.8201 151.307 88.1211C151.702 88.4222 152.013 88.7985 152.238 89.2501C152.464 89.7016 152.577 90.2567 152.577 90.9152C152.577 91.6678 152.427 92.3075 152.126 92.8344C151.825 93.3612 151.42 93.7939 150.912 94.1326C150.423 94.4525 149.858 94.6877 149.219 94.8382C148.598 94.9887 147.958 95.064 147.299 95.064C146.171 95.064 145.192 94.8946 144.364 94.556C143.555 94.1985 142.821 93.5493 142.163 92.6086L143.913 91.2539Z" fill="white"/>
</svg>
