<svg width="1051" height="1024" viewBox="0 0 1051 1024" fill="none" xmlns="http://www.w3.org/2000/svg">
<g opacity="0.04">
<path d="M769.548 -131.147C709.364 -148.584 662.148 -162.265 623.859 -167.991C584.647 -173.856 551.713 -171.916 521.463 -155.279C491.214 -138.642 471.956 -111.875 455.939 -75.6331C441.923 -43.9214 468.641 -118.092 453.648 -66.6032L496.211 -63.301C510.144 -110.919 482.065 -31.3977 494.161 -58.7665C508.29 -90.7351 522.584 -108.237 541.612 -118.703C560.64 -129.168 583.085 -131.873 617.674 -126.7C652.863 -121.437 697.394 -108.581 759.444 -90.6032L799.575 -78.976C861.625 -60.998 906.131 -48.0568 938.679 -33.6939C970.673 -19.5759 988.189 -5.29266 998.662 13.7203C1009.14 32.7333 1011.84 55.1614 1006.67 89.7238C1001.4 124.885 988.533 169.382 970.541 231.384L790.179 852.925C772.188 914.927 759.236 959.398 744.862 991.921C730.733 1023.89 716.439 1041.39 697.411 1051.86C678.383 1062.32 655.938 1065.03 621.349 1059.85C586.16 1054.59 541.629 1041.74 479.579 1023.76L439.448 1012.13C377.398 994.153 332.892 981.212 300.344 966.849C268.35 952.731 250.834 938.448 240.361 919.435C229.887 900.422 227.18 877.993 232.357 843.431C236.204 817.755 244.102 787.101 255.089 748.288L212.606 744.992C202.59 780.773 194.952 811.096 191.034 837.251C185.165 876.433 187.106 909.342 203.756 939.568C220.407 969.793 247.194 989.036 283.464 1005.04C318.88 1020.67 366.097 1034.35 426.282 1051.79L469.473 1064.3C529.658 1081.74 576.875 1095.42 615.164 1101.15C654.376 1107.01 687.31 1105.07 717.56 1088.43C747.809 1071.8 767.067 1045.03 783.084 1008.79C798.725 973.4 812.415 926.221 829.865 866.084L1011.12 241.48C1028.57 181.344 1042.26 134.163 1047.99 95.9041C1053.86 56.7219 1051.92 23.8132 1035.27 -6.41258C1018.62 -36.6383 991.829 -55.8813 955.559 -71.8865C920.144 -87.5145 872.927 -101.194 812.743 -118.631L769.548 -131.147Z" fill="#F6F8FA"/>
<path d="M281.452 1132.15C341.636 1149.58 388.852 1163.26 427.141 1168.99C466.353 1174.86 499.287 1172.92 529.537 1156.28C559.786 1139.64 579.044 1112.88 595.061 1076.63C609.077 1044.92 582.359 1119.09 597.352 1067.6L554.789 1064.3C540.856 1111.92 568.935 1032.4 556.839 1059.77C542.71 1091.74 528.416 1109.24 509.388 1119.7C490.36 1130.17 467.915 1132.87 433.326 1127.7C398.137 1122.44 353.606 1109.58 291.556 1091.6L251.425 1079.98C189.375 1062 144.869 1049.06 112.321 1034.69C80.3272 1020.58 62.8114 1006.29 52.3378 987.28C41.8642 968.267 39.1571 945.839 44.3343 911.276C49.6013 876.115 62.4673 831.618 80.4592 769.616L260.821 148.075C278.813 86.0735 291.764 41.6015 306.138 9.07866C320.267 -22.8901 334.561 -40.3922 353.589 -50.8577C372.617 -61.3231 395.062 -64.0282 429.651 -58.855C464.84 -53.5921 509.371 -40.7361 571.421 -22.7581L611.552 -11.1309C673.602 6.847 718.108 19.7882 750.656 34.1512C782.65 48.2692 800.166 62.5525 810.639 81.5655C821.113 100.578 823.82 123.007 818.643 157.569C814.797 183.245 806.898 213.899 795.911 252.712L838.394 256.008C848.41 220.227 856.048 189.904 859.966 163.749C865.835 124.567 863.894 91.6582 847.244 61.4325C830.594 31.2068 803.806 11.9638 767.536 -4.04143C732.12 -19.6696 684.903 -33.3497 624.718 -50.7869L581.527 -63.301C521.342 -80.7389 474.125 -94.4196 435.836 -100.146C396.624 -106.011 363.69 -104.071 333.44 -87.434C303.191 -70.7966 283.933 -44.03 267.916 -7.78804C252.276 27.5998 238.585 74.7794 221.135 134.916L39.8845 759.52C22.4335 819.656 8.74206 866.837 3.01114 905.096C-2.85813 944.278 -0.917145 977.187 15.7331 1007.41C32.3834 1037.64 59.1708 1056.88 95.4409 1072.89C130.856 1088.51 178.073 1102.19 238.257 1119.63L281.452 1132.15Z" fill="#F6F8FA"/>
</g>
</svg>
