<svg width="20" height="20" viewBox="0 0 20 20" fill="none" xmlns="http://www.w3.org/2000/svg">
<path d="M17.2414 7.82572C17.1199 7.84608 17.0036 7.89018 16.8992 7.95551C16.7947 8.02084 16.7042 8.10612 16.6327 8.20646C16.5612 8.30681 16.5102 8.42026 16.4827 8.54032C16.4551 8.66038 16.4514 8.78471 16.4719 8.90619C16.5322 9.26765 16.5625 9.63348 16.5625 9.99994C16.5647 11.4724 16.0692 12.9024 15.1562 14.0577C14.5486 13.2849 13.7741 12.6594 12.8906 12.2281C13.4537 11.6579 13.8355 10.934 13.9881 10.1473C14.1408 9.36067 14.0573 8.54646 13.7484 7.80712C13.4394 7.06777 12.9187 6.43631 12.2517 5.99217C11.5847 5.54803 10.8013 5.31106 10 5.31106C9.19869 5.31106 8.41527 5.54803 7.74831 5.99217C7.08134 6.43631 6.56062 7.06777 6.25164 7.80712C5.94267 8.54646 5.85925 9.36067 6.01187 10.1473C6.16449 10.934 6.54634 11.6579 7.10937 12.2281C6.22591 12.6594 5.4514 13.2849 4.84375 14.0577C4.08037 13.0904 3.60498 11.9275 3.47209 10.7025C3.3392 9.47737 3.55417 8.23963 4.09237 7.13109C4.63058 6.02256 5.47023 5.0881 6.51508 4.43482C7.55994 3.78154 8.76772 3.43587 10 3.43744C10.3665 3.43741 10.7323 3.46773 11.0937 3.52806C11.339 3.5695 11.5906 3.51183 11.7933 3.36774C11.996 3.22364 12.1332 3.00492 12.1746 2.7597C12.216 2.51448 12.1584 2.26284 12.0143 2.06014C11.8702 1.85744 11.6515 1.72028 11.4062 1.67884C10.1964 1.47571 8.95689 1.53858 7.77384 1.86308C6.59079 2.18758 5.49264 2.76592 4.55577 3.55787C3.6189 4.34983 2.86581 5.33637 2.34888 6.44889C1.83196 7.56141 1.56361 8.77319 1.5625 9.99994C1.5625 12.2377 2.45145 14.3838 4.03379 15.9662C5.61612 17.5485 7.76224 18.4374 10 18.4374C12.2378 18.4374 14.3839 17.5485 15.9662 15.9662C17.5486 14.3838 18.4375 12.2377 18.4375 9.99994C18.4376 9.52878 18.3987 9.05842 18.3211 8.59369C18.2796 8.34875 18.1426 8.13029 17.9402 7.9863C17.7377 7.84231 17.4864 7.78455 17.2414 7.82572ZM7.8125 9.37494C7.8125 8.94229 7.94079 8.51936 8.18116 8.15963C8.42153 7.79989 8.76317 7.51952 9.16288 7.35395C9.56259 7.18838 10.0024 7.14506 10.4268 7.22947C10.8511 7.31387 11.2409 7.52221 11.5468 7.82814C11.8527 8.13407 12.0611 8.52384 12.1455 8.94818C12.2299 9.37251 12.1866 9.81234 12.021 10.2121C11.8554 10.6118 11.575 10.9534 11.2153 11.1938C10.8556 11.4341 10.4326 11.5624 10 11.5624C9.41984 11.5624 8.86344 11.332 8.4532 10.9217C8.04297 10.5115 7.8125 9.9551 7.8125 9.37494ZM6.21641 15.357C6.65162 14.7619 7.22106 14.2779 7.87848 13.9442C8.5359 13.6105 9.26275 13.4366 10 13.4366C10.7372 13.4366 11.4641 13.6105 12.1215 13.9442C12.7789 14.2779 13.3484 14.7619 13.7836 15.357C12.6778 16.1412 11.3556 16.5624 10 16.5624C8.64435 16.5624 7.3222 16.1412 6.21641 15.357ZM18.7883 3.78822L16.2883 6.28822C16.2012 6.37562 16.0977 6.44497 15.9837 6.49228C15.8698 6.5396 15.7476 6.56396 15.6242 6.56396C15.5008 6.56396 15.3787 6.5396 15.2647 6.49228C15.1507 6.44497 15.0473 6.37562 14.9602 6.28822L13.7102 5.03822C13.534 4.8621 13.4351 4.62323 13.4351 4.37416C13.4351 4.12508 13.534 3.88621 13.7102 3.71009C13.8863 3.53397 14.1251 3.43503 14.3742 3.43503C14.6233 3.43503 14.8622 3.53397 15.0383 3.71009L15.625 4.29681L17.4617 2.45931C17.6378 2.28319 17.8767 2.18425 18.1258 2.18425C18.3749 2.18425 18.6137 2.28319 18.7898 2.45931C18.966 2.63543 19.0649 2.8743 19.0649 3.12337C19.0649 3.37245 18.966 3.61132 18.7898 3.78744L18.7883 3.78822Z" fill="#666D80"/>
</svg>
