<svg width="16" height="14" viewBox="0 0 16 14" fill="none" xmlns="http://www.w3.org/2000/svg">
<path d="M15.8132 7.00084C15.8132 7.24949 15.7145 7.48794 15.5387 7.66376C15.3628 7.83957 15.1244 7.93834 14.8757 7.93834H3.39136L7.41636 11.9626C7.59248 12.1387 7.69143 12.3776 7.69143 12.6266C7.69143 12.8757 7.59248 13.1146 7.41636 13.2907C7.24024 13.4668 7.00137 13.5658 6.7523 13.5658C6.50323 13.5658 6.26436 13.4668 6.08824 13.2907L0.463239 7.66569C0.375839 7.57859 0.306492 7.4751 0.259175 7.36114C0.211857 7.24719 0.1875 7.12501 0.1875 7.00163C0.1875 6.87824 0.211857 6.75606 0.259175 6.64211C0.306492 6.52815 0.375839 6.42466 0.463239 6.33756L6.08824 0.712564C6.17544 0.625358 6.27897 0.556182 6.39291 0.508987C6.50685 0.461791 6.62897 0.4375 6.7523 0.4375C6.87563 0.4375 6.99775 0.461791 7.11169 0.508987C7.22563 0.556182 7.32916 0.625358 7.41636 0.712564C7.50357 0.799769 7.57275 0.903298 7.61994 1.01724C7.66714 1.13118 7.69143 1.2533 7.69143 1.37663C7.69143 1.49995 7.66714 1.62207 7.61994 1.73601C7.57275 1.84995 7.50357 1.95348 7.41636 2.04069L3.39136 6.06334H14.8757C15.1244 6.06335 15.3628 6.16212 15.5387 6.33793C15.7145 6.51375 15.8132 6.7522 15.8132 7.00084Z" fill="#1A1B25"/>
</svg>
