<svg width="8" height="10" viewBox="0 0 8 10" fill="none" xmlns="http://www.w3.org/2000/svg">
<path fill-rule="evenodd" clip-rule="evenodd" d="M4 0C3.58579 0 3.25 0.335787 3.25 0.75L3.25 7.38792L1.29063 5.23017C1.00353 4.93159 0.528748 4.92228 0.230169 5.20938C-0.0684092 5.49647 -0.077719 5.97125 0.209376 6.26983L3.45938 9.76983C3.60078 9.91689 3.79599 10 4 10C4.20401 10 4.39922 9.91689 4.54063 9.76983L7.79063 6.26983C8.07772 5.97125 8.06841 5.49647 7.76983 5.20938C7.47125 4.92228 6.99647 4.93159 6.70938 5.23017L4.75 7.38792V0.75C4.75 0.335787 4.41421 0 4 0Z" fill="#FF5C5C"/>
</svg>
