<svg width="8" height="10" viewBox="0 0 8 10" fill="none" xmlns="http://www.w3.org/2000/svg">
<path fill-rule="evenodd" clip-rule="evenodd" d="M4 10C3.58579 10 3.25 9.66421 3.25 9.25L3.25 2.61208L1.29063 4.76983C1.00353 5.06841 0.528748 5.07772 0.230169 4.79062C-0.0684092 4.50353 -0.077719 4.02875 0.209376 3.73017L3.45938 0.230168C3.60078 0.0831099 3.79599 6.48486e-09 4 0C4.20401 -6.48486e-09 4.39922 0.0831098 4.54063 0.230168L7.79063 3.73017C8.07772 4.02875 8.06841 4.50353 7.76983 4.79062C7.47125 5.07772 6.99647 5.06841 6.70938 4.76983L4.75 2.61208V9.25C4.75 9.66421 4.41421 10 4 10Z" fill="#1EB644"/>
</svg>
