<svg width="24" height="25" viewBox="0 0 24 25" fill="none" xmlns="http://www.w3.org/2000/svg">
<path d="M22.1259 14C22.1241 15.6902 21.4519 17.3107 20.2568 18.5059C19.0616 19.7011 17.4411 20.3733 15.7509 20.375H7.50089C7.20252 20.375 6.91637 20.2565 6.70539 20.0455C6.49441 19.8345 6.37589 19.5484 6.37589 19.25C6.37589 18.9516 6.49441 18.6655 6.70539 18.4545C6.91637 18.2435 7.20252 18.125 7.50089 18.125H15.7509C16.8449 18.125 17.8941 17.6904 18.6677 16.9168C19.4413 16.1432 19.8759 15.094 19.8759 14C19.8759 12.906 19.4413 11.8568 18.6677 11.0832C17.8941 10.3096 16.8449 9.87501 15.7509 9.87501H5.71964L8.29964 12.4541C8.51098 12.6654 8.62971 12.9521 8.62971 13.2509C8.62971 13.5498 8.51098 13.8365 8.29964 14.0478C8.08829 14.2592 7.80165 14.3779 7.50276 14.3779C7.20388 14.3779 6.91723 14.2592 6.70589 14.0478L2.20589 9.54782C2.10101 9.4433 2.01779 9.31911 1.96101 9.18236C1.90423 9.04562 1.875 8.89901 1.875 8.75094C1.875 8.60288 1.90423 8.45627 1.96101 8.31952C2.01779 8.18278 2.10101 8.05859 2.20589 7.95407L6.70589 3.45407C6.91723 3.24272 7.20388 3.12399 7.50276 3.12399C7.80165 3.12399 8.08829 3.24272 8.29964 3.45407C8.51098 3.66541 8.62971 3.95206 8.62971 4.25094C8.62971 4.54983 8.51098 4.83647 8.29964 5.04782L5.71964 7.62501H15.7509C17.441 7.62699 19.0614 8.29928 20.2565 9.49439C21.4516 10.6895 22.1239 12.3099 22.1259 14Z" fill="#1A1B25"/>
</svg>
