<svg width="48" height="48" viewBox="0 0 48 48" fill="none" xmlns="http://www.w3.org/2000/svg">
<path d="M33 2.25H15C13.6076 2.25 12.2723 2.80312 11.2877 3.78769C10.3031 4.77226 9.75 6.10761 9.75 7.5V40.5C9.75 41.8924 10.3031 43.2277 11.2877 44.2123C12.2723 45.1969 13.6076 45.75 15 45.75H33C34.3924 45.75 35.7277 45.1969 36.7123 44.2123C37.6969 43.2277 38.25 41.8924 38.25 40.5V7.5C38.25 6.10761 37.6969 4.77226 36.7123 3.78769C35.7277 2.80312 34.3924 2.25 33 2.25ZM14.25 14.25H33.75V33.75H14.25V14.25ZM15 6.75H33C33.1989 6.75 33.3897 6.82902 33.5303 6.96967C33.671 7.11032 33.75 7.30109 33.75 7.5V9.75H14.25V7.5C14.25 7.30109 14.329 7.11032 14.4697 6.96967C14.6103 6.82902 14.8011 6.75 15 6.75ZM33 41.25H15C14.8011 41.25 14.6103 41.171 14.4697 41.0303C14.329 40.8897 14.25 40.6989 14.25 40.5V38.25H33.75V40.5C33.75 40.6989 33.671 40.8897 33.5303 41.0303C33.3897 41.171 33.1989 41.25 33 41.25Z" fill="#808897"/>
</svg>
