<svg width="22" height="22" viewBox="0 0 22 22" fill="none" xmlns="http://www.w3.org/2000/svg">
<path d="M10.9999 6.12507C10.0357 6.12507 9.09316 6.41099 8.29147 6.94666C7.48978 7.48233 6.86494 8.2437 6.49597 9.13449C6.12699 10.0253 6.03045 11.0055 6.21855 11.9511C6.40665 12.8968 6.87095 13.7654 7.55273 14.4472C8.23451 15.129 9.10316 15.5933 10.0488 15.7814C10.9945 15.9695 11.9747 15.873 12.8655 15.504C13.7563 15.135 14.5176 14.5102 15.0533 13.7085C15.589 12.9068 15.8749 11.9643 15.8749 11.0001C15.8734 9.7076 15.3593 8.46849 14.4454 7.55457C13.5315 6.64065 12.2924 6.12656 10.9999 6.12507ZM10.9999 13.6251C10.4807 13.6251 9.97319 13.4711 9.54151 13.1827C9.10983 12.8942 8.77338 12.4843 8.57469 12.0046C8.37601 11.525 8.32403 10.9972 8.42532 10.488C8.5266 9.97876 8.77661 9.51103 9.14372 9.14392C9.51084 8.77681 9.97857 8.5268 10.4878 8.42551C10.997 8.32423 11.5248 8.37621 12.0044 8.57489C12.4841 8.77357 12.894 9.11002 13.1825 9.5417C13.4709 9.97338 13.6249 10.4809 13.6249 11.0001C13.6249 11.6963 13.3483 12.3639 12.856 12.8562C12.3638 13.3485 11.6961 13.6251 10.9999 13.6251ZM19.6249 11.0741V10.926L20.9374 9.28445C21.0476 9.1469 21.1239 8.9854 21.1602 8.81295C21.1965 8.6405 21.1918 8.46193 21.1464 8.29164C20.9096 7.3983 20.5556 6.54022 20.0936 5.73976C20.0046 5.58712 19.8809 5.45758 19.7326 5.36165C19.5842 5.26571 19.4153 5.20608 19.2396 5.18757L17.1508 4.9532L17.0468 4.84914L16.8124 2.75945C16.7937 2.58389 16.734 2.41519 16.6381 2.26698C16.5422 2.11878 16.4127 1.99523 16.2602 1.90632C15.4597 1.44291 14.6013 1.08763 13.7074 0.849761C13.5369 0.805078 13.3584 0.801057 13.1861 0.838021C13.0138 0.874986 12.8526 0.951902 12.7155 1.06257L11.0739 2.37507H10.9258L9.28425 1.06257C9.14671 0.9524 8.9852 0.87608 8.81275 0.839767C8.64031 0.803453 8.46174 0.808161 8.29144 0.853511C7.39787 1.09183 6.53979 1.44742 5.73957 1.91101C5.58752 1.99955 5.45835 2.12251 5.36245 2.27002C5.26655 2.41754 5.20659 2.58549 5.18738 2.76039L4.953 4.84914L4.84894 4.9532L2.75925 5.18757C2.5837 5.20622 2.415 5.26592 2.26679 5.36185C2.11858 5.45778 1.99503 5.58724 1.90613 5.73976C1.44401 6.54048 1.09 7.39888 0.853316 8.29257C0.808121 8.46273 0.803493 8.64112 0.839804 8.81339C0.876114 8.98566 0.95235 9.14701 1.06238 9.28445L2.37488 10.926V11.0741L1.06238 12.7157C0.952205 12.8532 0.875886 13.0148 0.839572 13.1872C0.803259 13.3596 0.807967 13.5382 0.853316 13.7085C1.09194 14.6021 1.44784 15.4602 1.91175 16.2604C2.0002 16.4123 2.12301 16.5414 2.27036 16.6373C2.4177 16.7332 2.58546 16.7932 2.76019 16.8126L4.84894 17.0451L4.953 17.1491L5.18738 19.2407C5.20602 19.4163 5.26573 19.585 5.36165 19.7332C5.45758 19.8814 5.58704 20.0049 5.73957 20.0938C6.54009 20.5572 7.3985 20.9125 8.29238 21.1504C8.46282 21.1951 8.64138 21.1991 8.81367 21.1621C8.98595 21.1252 9.14714 21.0482 9.28425 20.9376L10.9258 19.6251H11.0739L12.7155 20.9376C12.8531 21.0477 13.0146 21.1241 13.187 21.1604C13.3595 21.1967 13.538 21.192 13.7083 21.1466C14.6017 20.9098 15.4597 20.5558 16.2602 20.0938C16.4126 20.0055 16.5421 19.8826 16.6384 19.7351C16.7346 19.5876 16.7948 19.4195 16.8143 19.2444L17.0468 17.1557L17.1508 17.0516L19.2405 16.8126C19.4156 16.7932 19.5836 16.7329 19.7312 16.6367C19.8787 16.5404 20.0016 16.4109 20.0899 16.2585C20.5533 15.458 20.9086 14.5996 21.1464 13.7057C21.1913 13.5358 21.1958 13.3578 21.1595 13.1859C21.1232 13.014 21.0471 12.8529 20.9374 12.7157L19.6249 11.0741ZM17.3636 10.6157C17.3786 10.8717 17.3786 11.1284 17.3636 11.3844C17.3469 11.6628 17.4341 11.9374 17.6083 12.1551L18.8121 13.6598C18.6984 13.9961 18.5628 14.3246 18.4061 14.6432L16.4908 14.856C16.2135 14.8877 15.9579 15.0214 15.7736 15.231C15.6033 15.4229 15.4218 15.6045 15.2299 15.7748C15.0202 15.959 14.8866 16.2146 14.8549 16.4919L14.643 18.4063C14.3245 18.5637 13.996 18.6999 13.6596 18.8141L12.1549 17.6094C11.9552 17.4501 11.7072 17.3635 11.4518 17.3638C11.4293 17.3638 11.4068 17.3638 11.3843 17.3638C11.1282 17.3788 10.8715 17.3788 10.6155 17.3638C10.3374 17.3473 10.0629 17.4341 9.84488 17.6076L8.34019 18.8123C8.00384 18.6986 7.67532 18.563 7.35675 18.4063L7.14394 16.491C7.11224 16.2137 6.97858 15.9581 6.76894 15.7738C6.57707 15.6035 6.3955 15.4219 6.22519 15.2301C6.04092 15.0204 5.78531 14.8868 5.508 14.8551L3.59363 14.6432C3.43629 14.3247 3.30006 13.9962 3.18582 13.6598L4.38957 12.1551C4.56381 11.9374 4.65101 11.6628 4.63425 11.3844C4.61925 11.1284 4.61925 10.8717 4.63425 10.6157C4.65101 10.3374 4.56381 10.0627 4.38957 9.84507L3.18769 8.34039C3.30132 8.00404 3.43693 7.67552 3.59363 7.35695L5.50894 7.14414C5.78624 7.11243 6.04186 6.97877 6.22613 6.76914C6.39644 6.57726 6.57801 6.39569 6.76988 6.22539C6.97952 6.04112 7.11317 5.7855 7.14488 5.5082L7.35675 3.59382C7.67528 3.43648 8.0038 3.30025 8.34019 3.18601L9.84488 4.3907C10.0629 4.56413 10.3374 4.65093 10.6155 4.63445C10.8715 4.61945 11.1282 4.61945 11.3843 4.63445C11.6625 4.65147 11.9371 4.5646 12.1549 4.3907L13.6596 3.18601C13.996 3.30025 14.3245 3.43648 14.643 3.59382L14.8558 5.50914C14.8875 5.78644 15.0212 6.04206 15.2308 6.22632C15.4227 6.39663 15.6043 6.5782 15.7746 6.77007C15.9588 6.97971 16.2144 7.11337 16.4918 7.14507L18.4061 7.35695C18.5635 7.67547 18.6997 8.00399 18.8139 8.34039L17.6102 9.84507C17.4353 10.0625 17.3474 10.3371 17.3636 10.6157Z" fill="#808897"/>
</svg>
